<svg width="800" height="450" viewBox="0 0 800 450" fill="none" xmlns="http://www.w3.org/2000/svg">
  <defs>
    <linearGradient id="gradFarmBridge" x1="0" y1="0" x2="1" y2="1">
      <stop offset="0" stop-color="#22C55E"/>
      <stop offset="1" stop-color="#0EA5E9"/>
    </linearGradient>
  </defs>
  <rect width="800" height="450" rx="32" fill="#020617"/>
  <rect x="70" y="70" width="660" height="310" rx="28" fill="#020617" stroke="#1E293B" stroke-width="3"/>
  <path d="M140 320C210 280 260 270 320 275C380 280 430 295 490 320C550 345 600 350 660 340" stroke="url(#gradFarmBridge)" stroke-width="9" stroke-linecap="round"/>
  <rect x="140" y="120" width="220" height="150" rx="18" fill="#020617" stroke="#22C55E" stroke-width="2"/>
  <rect x="165" y="145" width="90" height="12" rx="6" fill="#22C55E"/>
  <rect x="165" y="170" width="140" height="8" rx="4" fill="#1E293B"/>
  <rect x="165" y="188" width="120" height="8" rx="4" fill="#1E293B"/>
  <rect x="165" y="206" width="100" height="8" rx="4" fill="#1E293B"/>
  <rect x="440" y="120" width="220" height="150" rx="18" fill="#020617" stroke="#0EA5E9" stroke-width="2"/>
  <circle cx="500" cy="175" r="40" fill="#020617" stroke="#0EA5E9" stroke-width="4"/>
  <path d="M500 145V160M500 190V205M470 175H485M515 175H530M479 154L490 165M510 185L521 196M479 196L490 185M510 165L521 154" stroke="#0EA5E9" stroke-width="4" stroke-linecap="round"/>
  <rect x="545" y="210" width="80" height="10" rx="5" fill="#0EA5E9"/>
  <text x="80" y="380" fill="#E5E7EB" font-family="system-ui, -apple-system, BlinkMacSystemFont" font-size="20">
    FarmBridge AI – Market Intelligence for Farmers
  </text>
</svg>

