<svg width="800" height="450" viewBox="0 0 800 450" fill="none" xmlns="http://www.w3.org/2000/svg">
  <defs>
    <linearGradient id="gradViro" x1="0" y1="0" x2="1" y2="1">
      <stop offset="0" stop-color="#0EA5E9"/>
      <stop offset="1" stop-color="#6366F1"/>
    </linearGradient>
  </defs>
  <rect width="800" height="450" rx="32" fill="#020617"/>
  <path d="M160 120C250 120 350 80 400 60C450 80 550 120 640 120V230C640 320 550 370 400 400C250 370 160 320 160 230V120Z" fill="#020817" stroke="#0EA5E9" stroke-width="3"/>
  <circle cx="400" cy="210" r="90" fill="#020617" stroke="url(#gradViro)" stroke-width="12"/>
  <path d="M360 210L390 240L445 185" stroke="#22C55E" stroke-width="10" stroke-linecap="round" stroke-linejoin="round"/>
  <circle cx="330" cy="170" r="10" fill="#FB7185"/>
  <circle cx="470" cy="250" r="7" fill="#FACC15"/>
  <circle cx="445" cy="155" r="6" fill="#38BDF8"/>
  <rect x="180" y="260" width="140" height="80" rx="16" fill="#020617" stroke="#1E293B" stroke-width="2"/>
  <rect x="330" y="260" width="140" height="80" rx="16" fill="#020617" stroke="#1E293B" stroke-width="2"/>
  <rect x="480" y="260" width="140" height="80" rx="16" fill="#020617" stroke="#1E293B" stroke-width="2"/>
  <rect x="200" y="282" width="100" height="14" rx="7" fill="#0EA5E9"/>
  <rect x="350" y="282" width="90" height="14" rx="7" fill="#22C55E"/>
  <rect x="500" y="282" width="90" height="14" rx="7" fill="#F97316"/>
  <text x="80" y="380" fill="#E5E7EB" font-family="system-ui, -apple-system, BlinkMacSystemFont" font-size="20">
    ViroShield – Outbreak Reporting &amp; Response
  </text>
</svg>

